<mxfile host="Electron" modified="2023-11-25T03:35:51.286Z" agent="Mozilla/5.0 (Windows NT 10.0; Win64; x64) AppleWebKit/537.36 (KHTML, like Gecko) draw.io/22.1.2 Chrome/114.0.5735.289 Electron/25.9.4 Safari/537.36" etag="z6Hjhn0T0fYbmdqSby7k" version="22.1.2" type="device">
  <diagram id="C5RBs43oDa-KdzZeNtuy" name="Page-1">
    <mxGraphModel dx="874" dy="532" grid="1" gridSize="10" guides="1" tooltips="1" connect="1" arrows="1" fold="1" page="1" pageScale="1" pageWidth="827" pageHeight="1169" math="0" shadow="0">
      <root>
        <mxCell id="WIyWlLk6GJQsqaUBKTNV-0" />
        <mxCell id="WIyWlLk6GJQsqaUBKTNV-1" parent="WIyWlLk6GJQsqaUBKTNV-0" />
        <mxCell id="xeSXIi57mY3782JtzwZf-1" value="UI" style="swimlane;fontStyle=1;align=center;verticalAlign=top;childLayout=stackLayout;horizontal=1;startSize=26;horizontalStack=0;resizeParent=1;resizeParentMax=0;resizeLast=0;collapsible=1;marginBottom=0;whiteSpace=wrap;html=1;" parent="WIyWlLk6GJQsqaUBKTNV-1" vertex="1">
          <mxGeometry x="1241" y="150" width="370" height="216" as="geometry" />
        </mxCell>
        <mxCell id="xeSXIi57mY3782JtzwZf-3" value="" style="line;strokeWidth=1;fillColor=none;align=left;verticalAlign=middle;spacingTop=-1;spacingLeft=3;spacingRight=3;rotatable=0;labelPosition=right;points=[];portConstraint=eastwest;strokeColor=inherit;" parent="xeSXIi57mY3782JtzwZf-1" vertex="1">
          <mxGeometry y="26" width="370" height="8" as="geometry" />
        </mxCell>
        <mxCell id="xeSXIi57mY3782JtzwZf-2" value="+ converterEntradaCoord(entrada : String) : int[]" style="text;strokeColor=none;fillColor=none;align=left;verticalAlign=top;spacingLeft=4;spacingRight=4;overflow=hidden;rotatable=0;points=[[0,0.5],[1,0.5]];portConstraint=eastwest;whiteSpace=wrap;html=1;fontStyle=4" parent="xeSXIi57mY3782JtzwZf-1" vertex="1">
          <mxGeometry y="34" width="370" height="26" as="geometry" />
        </mxCell>
        <mxCell id="xeSXIi57mY3782JtzwZf-6" value="+ converterEntradaPeca(c: char) :&amp;nbsp; PecaEnum" style="text;strokeColor=none;fillColor=none;align=left;verticalAlign=top;spacingLeft=4;spacingRight=4;overflow=hidden;rotatable=0;points=[[0,0.5],[1,0.5]];portConstraint=eastwest;whiteSpace=wrap;html=1;fontStyle=4" parent="xeSXIi57mY3782JtzwZf-1" vertex="1">
          <mxGeometry y="60" width="370" height="26" as="geometry" />
        </mxCell>
        <mxCell id="xeSXIi57mY3782JtzwZf-7" value="+ imprimirPartida(jogada : Jogada) : String" style="text;strokeColor=none;fillColor=none;align=left;verticalAlign=top;spacingLeft=4;spacingRight=4;overflow=hidden;rotatable=0;points=[[0,0.5],[1,0.5]];portConstraint=eastwest;whiteSpace=wrap;html=1;fontStyle=4" parent="xeSXIi57mY3782JtzwZf-1" vertex="1">
          <mxGeometry y="86" width="370" height="26" as="geometry" />
        </mxCell>
        <mxCell id="xeSXIi57mY3782JtzwZf-8" value="+ imprimirTabuleiro(jogada : Jogada, indentacao : int) : String" style="text;strokeColor=none;fillColor=none;align=left;verticalAlign=top;spacingLeft=4;spacingRight=4;overflow=hidden;rotatable=0;points=[[0,0.5],[1,0.5]];portConstraint=eastwest;whiteSpace=wrap;html=1;fontStyle=4" parent="xeSXIi57mY3782JtzwZf-1" vertex="1">
          <mxGeometry y="112" width="370" height="26" as="geometry" />
        </mxCell>
        <mxCell id="xeSXIi57mY3782JtzwZf-9" value="+ lerCoordenada(sc : Scanner) : int[]" style="text;strokeColor=none;fillColor=none;align=left;verticalAlign=top;spacingLeft=4;spacingRight=4;overflow=hidden;rotatable=0;points=[[0,0.5],[1,0.5]];portConstraint=eastwest;whiteSpace=wrap;html=1;fontStyle=4" parent="xeSXIi57mY3782JtzwZf-1" vertex="1">
          <mxGeometry y="138" width="370" height="26" as="geometry" />
        </mxCell>
        <mxCell id="xeSXIi57mY3782JtzwZf-10" value="+ lerPecaEscolhida(sc : Scanner) : PecaEnum" style="text;strokeColor=none;fillColor=none;align=left;verticalAlign=top;spacingLeft=4;spacingRight=4;overflow=hidden;rotatable=0;points=[[0,0.5],[1,0.5]];portConstraint=eastwest;whiteSpace=wrap;html=1;fontStyle=4" parent="xeSXIi57mY3782JtzwZf-1" vertex="1">
          <mxGeometry y="164" width="370" height="26" as="geometry" />
        </mxCell>
        <mxCell id="xeSXIi57mY3782JtzwZf-11" value="+ usuarioJogaPrimeiro(sc : Scanner) : boolean" style="text;strokeColor=none;fillColor=none;align=left;verticalAlign=top;spacingLeft=4;spacingRight=4;overflow=hidden;rotatable=0;points=[[0,0.5],[1,0.5]];portConstraint=eastwest;whiteSpace=wrap;html=1;fontStyle=4" parent="xeSXIi57mY3782JtzwZf-1" vertex="1">
          <mxGeometry y="190" width="370" height="26" as="geometry" />
        </mxCell>
        <mxCell id="xeSXIi57mY3782JtzwZf-21" value="&amp;lt;&amp;lt;Interface&amp;gt;&amp;gt;&lt;br&gt;Comparable &amp;lt;T&amp;gt;" style="swimlane;fontStyle=1;align=center;verticalAlign=top;childLayout=stackLayout;horizontal=1;startSize=42;horizontalStack=0;resizeParent=1;resizeParentMax=0;resizeLast=0;collapsible=1;marginBottom=0;whiteSpace=wrap;html=1;" parent="WIyWlLk6GJQsqaUBKTNV-1" vertex="1">
          <mxGeometry x="905" y="30" width="160" height="76" as="geometry" />
        </mxCell>
        <mxCell id="xeSXIi57mY3782JtzwZf-23" value="" style="line;strokeWidth=1;fillColor=none;align=left;verticalAlign=middle;spacingTop=-1;spacingLeft=3;spacingRight=3;rotatable=0;labelPosition=right;points=[];portConstraint=eastwest;strokeColor=inherit;" parent="xeSXIi57mY3782JtzwZf-21" vertex="1">
          <mxGeometry y="42" width="160" height="8" as="geometry" />
        </mxCell>
        <mxCell id="xeSXIi57mY3782JtzwZf-24" value="+ compareTo (o : T) : int" style="text;strokeColor=none;fillColor=none;align=left;verticalAlign=top;spacingLeft=4;spacingRight=4;overflow=hidden;rotatable=0;points=[[0,0.5],[1,0.5]];portConstraint=eastwest;whiteSpace=wrap;html=1;" parent="xeSXIi57mY3782JtzwZf-21" vertex="1">
          <mxGeometry y="50" width="160" height="26" as="geometry" />
        </mxCell>
        <mxCell id="73gj4kDyClrbxTWy45iN-3" style="edgeStyle=orthogonalEdgeStyle;rounded=0;orthogonalLoop=1;jettySize=auto;html=1;" edge="1" parent="WIyWlLk6GJQsqaUBKTNV-1" source="xeSXIi57mY3782JtzwZf-29" target="xeSXIi57mY3782JtzwZf-41">
          <mxGeometry relative="1" as="geometry" />
        </mxCell>
        <mxCell id="xeSXIi57mY3782JtzwZf-29" value="&amp;lt;&amp;lt;Enumeration&amp;gt;&amp;gt;&lt;br&gt;PecaEnum" style="swimlane;fontStyle=1;align=center;verticalAlign=top;childLayout=stackLayout;horizontal=1;startSize=42;horizontalStack=0;resizeParent=1;resizeParentMax=0;resizeLast=0;collapsible=1;marginBottom=0;whiteSpace=wrap;html=1;" parent="WIyWlLk6GJQsqaUBKTNV-1" vertex="1">
          <mxGeometry x="275" y="600" width="300" height="130" as="geometry" />
        </mxCell>
        <mxCell id="xeSXIi57mY3782JtzwZf-32" value="X" style="text;strokeColor=none;fillColor=none;align=left;verticalAlign=top;spacingLeft=4;spacingRight=4;overflow=hidden;rotatable=0;points=[[0,0.5],[1,0.5]];portConstraint=eastwest;whiteSpace=wrap;html=1;" parent="xeSXIi57mY3782JtzwZf-29" vertex="1">
          <mxGeometry y="42" width="300" height="26" as="geometry" />
        </mxCell>
        <mxCell id="xeSXIi57mY3782JtzwZf-33" value="O" style="text;strokeColor=none;fillColor=none;align=left;verticalAlign=top;spacingLeft=4;spacingRight=4;overflow=hidden;rotatable=0;points=[[0,0.5],[1,0.5]];portConstraint=eastwest;whiteSpace=wrap;html=1;" parent="xeSXIi57mY3782JtzwZf-29" vertex="1">
          <mxGeometry y="68" width="300" height="26" as="geometry" />
        </mxCell>
        <mxCell id="xeSXIi57mY3782JtzwZf-30" value="" style="line;strokeWidth=1;fillColor=none;align=left;verticalAlign=middle;spacingTop=-1;spacingLeft=3;spacingRight=3;rotatable=0;labelPosition=right;points=[];portConstraint=eastwest;strokeColor=inherit;" parent="xeSXIi57mY3782JtzwZf-29" vertex="1">
          <mxGeometry y="94" width="300" height="8" as="geometry" />
        </mxCell>
        <mxCell id="xeSXIi57mY3782JtzwZf-31" value="&lt;u&gt;+ pecaOposta(peca :&amp;nbsp;PecaEnum) :&amp;nbsp;PecaEnum&lt;/u&gt;" style="text;strokeColor=none;fillColor=none;align=left;verticalAlign=top;spacingLeft=4;spacingRight=4;overflow=hidden;rotatable=0;points=[[0,0.5],[1,0.5]];portConstraint=eastwest;whiteSpace=wrap;html=1;" parent="xeSXIi57mY3782JtzwZf-29" vertex="1">
          <mxGeometry y="102" width="300" height="28" as="geometry" />
        </mxCell>
        <mxCell id="73gj4kDyClrbxTWy45iN-12" style="edgeStyle=orthogonalEdgeStyle;rounded=0;orthogonalLoop=1;jettySize=auto;html=1;endArrow=diamondThin;endFill=1;" edge="1" parent="WIyWlLk6GJQsqaUBKTNV-1" source="xeSXIi57mY3782JtzwZf-34" target="xeSXIi57mY3782JtzwZf-56">
          <mxGeometry relative="1" as="geometry" />
        </mxCell>
        <mxCell id="73gj4kDyClrbxTWy45iN-13" value="vencedor" style="edgeLabel;html=1;align=center;verticalAlign=middle;resizable=0;points=[];" vertex="1" connectable="0" parent="73gj4kDyClrbxTWy45iN-12">
          <mxGeometry x="0.8418" y="-1" relative="1" as="geometry">
            <mxPoint x="144" y="-11" as="offset" />
          </mxGeometry>
        </mxCell>
        <mxCell id="xeSXIi57mY3782JtzwZf-34" value="&amp;lt;&amp;lt;Enumeration&amp;gt;&amp;gt;&lt;br&gt;VencedorEnum" style="swimlane;fontStyle=1;align=center;verticalAlign=top;childLayout=stackLayout;horizontal=1;startSize=42;horizontalStack=0;resizeParent=1;resizeParentMax=0;resizeLast=0;collapsible=1;marginBottom=0;whiteSpace=wrap;html=1;" parent="WIyWlLk6GJQsqaUBKTNV-1" vertex="1">
          <mxGeometry x="1340" y="563" width="300" height="154" as="geometry" />
        </mxCell>
        <mxCell id="xeSXIi57mY3782JtzwZf-35" value="X" style="text;strokeColor=none;fillColor=none;align=left;verticalAlign=top;spacingLeft=4;spacingRight=4;overflow=hidden;rotatable=0;points=[[0,0.5],[1,0.5]];portConstraint=eastwest;whiteSpace=wrap;html=1;" parent="xeSXIi57mY3782JtzwZf-34" vertex="1">
          <mxGeometry y="42" width="300" height="26" as="geometry" />
        </mxCell>
        <mxCell id="xeSXIi57mY3782JtzwZf-36" value="O" style="text;strokeColor=none;fillColor=none;align=left;verticalAlign=top;spacingLeft=4;spacingRight=4;overflow=hidden;rotatable=0;points=[[0,0.5],[1,0.5]];portConstraint=eastwest;whiteSpace=wrap;html=1;" parent="xeSXIi57mY3782JtzwZf-34" vertex="1">
          <mxGeometry y="68" width="300" height="26" as="geometry" />
        </mxCell>
        <mxCell id="xeSXIi57mY3782JtzwZf-39" value="EMPATE" style="text;strokeColor=none;fillColor=none;align=left;verticalAlign=top;spacingLeft=4;spacingRight=4;overflow=hidden;rotatable=0;points=[[0,0.5],[1,0.5]];portConstraint=eastwest;whiteSpace=wrap;html=1;" parent="xeSXIi57mY3782JtzwZf-34" vertex="1">
          <mxGeometry y="94" width="300" height="26" as="geometry" />
        </mxCell>
        <mxCell id="xeSXIi57mY3782JtzwZf-40" value="NAO_FINALIZADO" style="text;strokeColor=none;fillColor=none;align=left;verticalAlign=top;spacingLeft=4;spacingRight=4;overflow=hidden;rotatable=0;points=[[0,0.5],[1,0.5]];portConstraint=eastwest;whiteSpace=wrap;html=1;" parent="xeSXIi57mY3782JtzwZf-34" vertex="1">
          <mxGeometry y="120" width="300" height="26" as="geometry" />
        </mxCell>
        <mxCell id="xeSXIi57mY3782JtzwZf-37" value="" style="line;strokeWidth=1;fillColor=none;align=left;verticalAlign=middle;spacingTop=-1;spacingLeft=3;spacingRight=3;rotatable=0;labelPosition=right;points=[];portConstraint=eastwest;strokeColor=inherit;" parent="xeSXIi57mY3782JtzwZf-34" vertex="1">
          <mxGeometry y="146" width="300" height="8" as="geometry" />
        </mxCell>
        <mxCell id="73gj4kDyClrbxTWy45iN-0" style="edgeStyle=orthogonalEdgeStyle;rounded=0;orthogonalLoop=1;jettySize=auto;html=1;endArrow=diamondThin;endFill=1;jumpSize=6;" edge="1" parent="WIyWlLk6GJQsqaUBKTNV-1" source="xeSXIi57mY3782JtzwZf-41" target="xeSXIi57mY3782JtzwZf-56">
          <mxGeometry relative="1" as="geometry" />
        </mxCell>
        <mxCell id="73gj4kDyClrbxTWy45iN-1" value="- tabuleiro" style="edgeLabel;html=1;align=center;verticalAlign=middle;resizable=0;points=[];" vertex="1" connectable="0" parent="73gj4kDyClrbxTWy45iN-0">
          <mxGeometry x="-0.6715" y="-1" relative="1" as="geometry">
            <mxPoint x="-14" y="-20" as="offset" />
          </mxGeometry>
        </mxCell>
        <mxCell id="xeSXIi57mY3782JtzwZf-41" value="Tabuleiro" style="swimlane;fontStyle=1;align=center;verticalAlign=top;childLayout=stackLayout;horizontal=1;startSize=26;horizontalStack=0;resizeParent=1;resizeParentMax=0;resizeLast=0;collapsible=1;marginBottom=0;whiteSpace=wrap;html=1;" parent="WIyWlLk6GJQsqaUBKTNV-1" vertex="1">
          <mxGeometry x="250" y="200" width="350" height="320" as="geometry" />
        </mxCell>
        <mxCell id="xeSXIi57mY3782JtzwZf-42" value="- matriz : PecaEnum[][]" style="text;strokeColor=none;fillColor=none;align=left;verticalAlign=top;spacingLeft=4;spacingRight=4;overflow=hidden;rotatable=0;points=[[0,0.5],[1,0.5]];portConstraint=eastwest;whiteSpace=wrap;html=1;" parent="xeSXIi57mY3782JtzwZf-41" vertex="1">
          <mxGeometry y="26" width="350" height="26" as="geometry" />
        </mxCell>
        <mxCell id="xeSXIi57mY3782JtzwZf-43" value="" style="line;strokeWidth=1;fillColor=none;align=left;verticalAlign=middle;spacingTop=-1;spacingLeft=3;spacingRight=3;rotatable=0;labelPosition=right;points=[];portConstraint=eastwest;strokeColor=inherit;" parent="xeSXIi57mY3782JtzwZf-41" vertex="1">
          <mxGeometry y="52" width="350" height="8" as="geometry" />
        </mxCell>
        <mxCell id="xeSXIi57mY3782JtzwZf-44" value="+&amp;nbsp;Tabuleiro() : void" style="text;strokeColor=none;fillColor=none;align=left;verticalAlign=top;spacingLeft=4;spacingRight=4;overflow=hidden;rotatable=0;points=[[0,0.5],[1,0.5]];portConstraint=eastwest;whiteSpace=wrap;html=1;" parent="xeSXIi57mY3782JtzwZf-41" vertex="1">
          <mxGeometry y="60" width="350" height="26" as="geometry" />
        </mxCell>
        <mxCell id="xeSXIi57mY3782JtzwZf-45" value="+ Tabuleiro(original : Tabuleiro) : void" style="text;strokeColor=none;fillColor=none;align=left;verticalAlign=top;spacingLeft=4;spacingRight=4;overflow=hidden;rotatable=0;points=[[0,0.5],[1,0.5]];portConstraint=eastwest;whiteSpace=wrap;html=1;" parent="xeSXIi57mY3782JtzwZf-41" vertex="1">
          <mxGeometry y="86" width="350" height="26" as="geometry" />
        </mxCell>
        <mxCell id="xeSXIi57mY3782JtzwZf-46" value="+ getMatriz() :&amp;nbsp;PecaEnum[][]" style="text;strokeColor=none;fillColor=none;align=left;verticalAlign=top;spacingLeft=4;spacingRight=4;overflow=hidden;rotatable=0;points=[[0,0.5],[1,0.5]];portConstraint=eastwest;whiteSpace=wrap;html=1;" parent="xeSXIi57mY3782JtzwZf-41" vertex="1">
          <mxGeometry y="112" width="350" height="26" as="geometry" />
        </mxCell>
        <mxCell id="xeSXIi57mY3782JtzwZf-47" value="+ setMatriz(matrizPecas : PecaEnum[][]) :&amp;nbsp;void" style="text;strokeColor=none;fillColor=none;align=left;verticalAlign=top;spacingLeft=4;spacingRight=4;overflow=hidden;rotatable=0;points=[[0,0.5],[1,0.5]];portConstraint=eastwest;whiteSpace=wrap;html=1;" parent="xeSXIi57mY3782JtzwZf-41" vertex="1">
          <mxGeometry y="138" width="350" height="26" as="geometry" />
        </mxCell>
        <mxCell id="xeSXIi57mY3782JtzwZf-49" value="+ getPeca(linha : int, coluna : int) : PecaEnum" style="text;strokeColor=none;fillColor=none;align=left;verticalAlign=top;spacingLeft=4;spacingRight=4;overflow=hidden;rotatable=0;points=[[0,0.5],[1,0.5]];portConstraint=eastwest;whiteSpace=wrap;html=1;" parent="xeSXIi57mY3782JtzwZf-41" vertex="1">
          <mxGeometry y="164" width="350" height="26" as="geometry" />
        </mxCell>
        <mxCell id="xeSXIi57mY3782JtzwZf-51" value="+ setPeca(linha : int&amp;nbsp;, coluna : int, peca : PecaEnum) :&amp;nbsp;Tabuleiro" style="text;strokeColor=none;fillColor=none;align=left;verticalAlign=top;spacingLeft=4;spacingRight=4;overflow=hidden;rotatable=0;points=[[0,0.5],[1,0.5]];portConstraint=eastwest;whiteSpace=wrap;html=1;" parent="xeSXIi57mY3782JtzwZf-41" vertex="1">
          <mxGeometry y="190" width="350" height="26" as="geometry" />
        </mxCell>
        <mxCell id="xeSXIi57mY3782JtzwZf-52" value="+ hashCode() : int" style="text;strokeColor=none;fillColor=none;align=left;verticalAlign=top;spacingLeft=4;spacingRight=4;overflow=hidden;rotatable=0;points=[[0,0.5],[1,0.5]];portConstraint=eastwest;whiteSpace=wrap;html=1;" parent="xeSXIi57mY3782JtzwZf-41" vertex="1">
          <mxGeometry y="216" width="350" height="26" as="geometry" />
        </mxCell>
        <mxCell id="xeSXIi57mY3782JtzwZf-53" value="+ equals(obj : Object) : boolean" style="text;strokeColor=none;fillColor=none;align=left;verticalAlign=top;spacingLeft=4;spacingRight=4;overflow=hidden;rotatable=0;points=[[0,0.5],[1,0.5]];portConstraint=eastwest;whiteSpace=wrap;html=1;" parent="xeSXIi57mY3782JtzwZf-41" vertex="1">
          <mxGeometry y="242" width="350" height="26" as="geometry" />
        </mxCell>
        <mxCell id="xeSXIi57mY3782JtzwZf-54" value="+ toString() :&amp;nbsp;String" style="text;strokeColor=none;fillColor=none;align=left;verticalAlign=top;spacingLeft=4;spacingRight=4;overflow=hidden;rotatable=0;points=[[0,0.5],[1,0.5]];portConstraint=eastwest;whiteSpace=wrap;html=1;" parent="xeSXIi57mY3782JtzwZf-41" vertex="1">
          <mxGeometry y="268" width="350" height="26" as="geometry" />
        </mxCell>
        <mxCell id="xeSXIi57mY3782JtzwZf-55" value="&lt;div&gt;+ String imprimirPeca(linha : int, coluna : int)&lt;/div&gt;" style="text;strokeColor=none;fillColor=none;align=left;verticalAlign=top;spacingLeft=4;spacingRight=4;overflow=hidden;rotatable=0;points=[[0,0.5],[1,0.5]];portConstraint=eastwest;whiteSpace=wrap;html=1;" parent="xeSXIi57mY3782JtzwZf-41" vertex="1">
          <mxGeometry y="294" width="350" height="26" as="geometry" />
        </mxCell>
        <mxCell id="xeSXIi57mY3782JtzwZf-60" style="edgeStyle=orthogonalEdgeStyle;rounded=0;orthogonalLoop=1;jettySize=auto;html=1;endArrow=block;endFill=1;dashed=1;" parent="WIyWlLk6GJQsqaUBKTNV-1" source="xeSXIi57mY3782JtzwZf-56" target="xeSXIi57mY3782JtzwZf-21" edge="1">
          <mxGeometry relative="1" as="geometry" />
        </mxCell>
        <mxCell id="73gj4kDyClrbxTWy45iN-2" value="Comparable &amp;lt;Jogada&amp;gt;" style="edgeLabel;html=1;align=center;verticalAlign=middle;resizable=0;points=[];" vertex="1" connectable="0" parent="xeSXIi57mY3782JtzwZf-60">
          <mxGeometry x="0.549" y="-3" relative="1" as="geometry">
            <mxPoint x="-3" y="-4" as="offset" />
          </mxGeometry>
        </mxCell>
        <mxCell id="xeSXIi57mY3782JtzwZf-56" value="Jogada" style="swimlane;fontStyle=1;align=center;verticalAlign=top;childLayout=stackLayout;horizontal=1;startSize=26;horizontalStack=0;resizeParent=1;resizeParentMax=0;resizeLast=0;collapsible=1;marginBottom=0;whiteSpace=wrap;html=1;" parent="WIyWlLk6GJQsqaUBKTNV-1" vertex="1">
          <mxGeometry x="810" y="210" width="350" height="860" as="geometry" />
        </mxCell>
        <mxCell id="xeSXIi57mY3782JtzwZf-57" value="- jogadorAtual : PecaEnum" style="text;strokeColor=none;fillColor=none;align=left;verticalAlign=top;spacingLeft=4;spacingRight=4;overflow=hidden;rotatable=0;points=[[0,0.5],[1,0.5]];portConstraint=eastwest;whiteSpace=wrap;html=1;" parent="xeSXIi57mY3782JtzwZf-56" vertex="1">
          <mxGeometry y="26" width="350" height="26" as="geometry" />
        </mxCell>
        <mxCell id="73gj4kDyClrbxTWy45iN-4" value="- linhaJogada : int" style="text;strokeColor=none;fillColor=none;align=left;verticalAlign=top;spacingLeft=4;spacingRight=4;overflow=hidden;rotatable=0;points=[[0,0.5],[1,0.5]];portConstraint=eastwest;whiteSpace=wrap;html=1;" vertex="1" parent="xeSXIi57mY3782JtzwZf-56">
          <mxGeometry y="52" width="350" height="26" as="geometry" />
        </mxCell>
        <mxCell id="73gj4kDyClrbxTWy45iN-5" value="- colunaJogada : int" style="text;strokeColor=none;fillColor=none;align=left;verticalAlign=top;spacingLeft=4;spacingRight=4;overflow=hidden;rotatable=0;points=[[0,0.5],[1,0.5]];portConstraint=eastwest;whiteSpace=wrap;html=1;" vertex="1" parent="xeSXIi57mY3782JtzwZf-56">
          <mxGeometry y="78" width="350" height="26" as="geometry" />
        </mxCell>
        <mxCell id="73gj4kDyClrbxTWy45iN-7" value="- jogadaAnterior : Jogada" style="text;strokeColor=none;fillColor=none;align=left;verticalAlign=top;spacingLeft=4;spacingRight=4;overflow=hidden;rotatable=0;points=[[0,0.5],[1,0.5]];portConstraint=eastwest;whiteSpace=wrap;html=1;" vertex="1" parent="xeSXIi57mY3782JtzwZf-56">
          <mxGeometry y="104" width="350" height="26" as="geometry" />
        </mxCell>
        <mxCell id="73gj4kDyClrbxTWy45iN-6" value="- jogadasProximas : List&lt;Jogada&gt;" style="text;strokeColor=none;fillColor=none;align=left;verticalAlign=top;spacingLeft=4;spacingRight=4;overflow=hidden;rotatable=0;points=[[0,0.5],[1,0.5]];portConstraint=eastwest;whiteSpace=wrap;html=1;" vertex="1" parent="xeSXIi57mY3782JtzwZf-56">
          <mxGeometry y="130" width="350" height="26" as="geometry" />
        </mxCell>
        <mxCell id="73gj4kDyClrbxTWy45iN-8" value="- pontosEmpate : int" style="text;strokeColor=none;fillColor=none;align=left;verticalAlign=top;spacingLeft=4;spacingRight=4;overflow=hidden;rotatable=0;points=[[0,0.5],[1,0.5]];portConstraint=eastwest;whiteSpace=wrap;html=1;" vertex="1" parent="xeSXIi57mY3782JtzwZf-56">
          <mxGeometry y="156" width="350" height="26" as="geometry" />
        </mxCell>
        <mxCell id="73gj4kDyClrbxTWy45iN-9" value="- pontosO : int" style="text;strokeColor=none;fillColor=none;align=left;verticalAlign=top;spacingLeft=4;spacingRight=4;overflow=hidden;rotatable=0;points=[[0,0.5],[1,0.5]];portConstraint=eastwest;whiteSpace=wrap;html=1;" vertex="1" parent="xeSXIi57mY3782JtzwZf-56">
          <mxGeometry y="182" width="350" height="26" as="geometry" />
        </mxCell>
        <mxCell id="73gj4kDyClrbxTWy45iN-10" value="- pontosX : int" style="text;strokeColor=none;fillColor=none;align=left;verticalAlign=top;spacingLeft=4;spacingRight=4;overflow=hidden;rotatable=0;points=[[0,0.5],[1,0.5]];portConstraint=eastwest;whiteSpace=wrap;html=1;" vertex="1" parent="xeSXIi57mY3782JtzwZf-56">
          <mxGeometry y="208" width="350" height="26" as="geometry" />
        </mxCell>
        <mxCell id="xeSXIi57mY3782JtzwZf-58" value="" style="line;strokeWidth=1;fillColor=none;align=left;verticalAlign=middle;spacingTop=-1;spacingLeft=3;spacingRight=3;rotatable=0;labelPosition=right;points=[];portConstraint=eastwest;strokeColor=inherit;" parent="xeSXIi57mY3782JtzwZf-56" vertex="1">
          <mxGeometry y="234" width="350" height="8" as="geometry" />
        </mxCell>
        <mxCell id="xeSXIi57mY3782JtzwZf-59" value="- Jogada(jogoAnterior : Jogada, jogador : PecaEnum, linha : int, coluna : int) : void" style="text;strokeColor=none;fillColor=none;align=left;verticalAlign=top;spacingLeft=4;spacingRight=4;overflow=hidden;rotatable=0;points=[[0,0.5],[1,0.5]];portConstraint=eastwest;whiteSpace=wrap;html=1;spacingBottom=0;" parent="xeSXIi57mY3782JtzwZf-56" vertex="1">
          <mxGeometry y="242" width="350" height="38" as="geometry" />
        </mxCell>
        <mxCell id="73gj4kDyClrbxTWy45iN-15" value="+ Jogada(jogador : PecaEnum) : void" style="text;strokeColor=none;fillColor=none;align=left;verticalAlign=top;spacingLeft=4;spacingRight=4;overflow=hidden;rotatable=0;points=[[0,0.5],[1,0.5]];portConstraint=eastwest;whiteSpace=wrap;html=1;" vertex="1" parent="xeSXIi57mY3782JtzwZf-56">
          <mxGeometry y="280" width="350" height="26" as="geometry" />
        </mxCell>
        <mxCell id="73gj4kDyClrbxTWy45iN-16" value="+ Jogada(tabuleiro : Tabuleiro, jogador : PecaEnum) : void" style="text;strokeColor=none;fillColor=none;align=left;verticalAlign=top;spacingLeft=4;spacingRight=4;overflow=hidden;rotatable=0;points=[[0,0.5],[1,0.5]];portConstraint=eastwest;whiteSpace=wrap;html=1;" vertex="1" parent="xeSXIi57mY3782JtzwZf-56">
          <mxGeometry y="306" width="350" height="26" as="geometry" />
        </mxCell>
        <mxCell id="73gj4kDyClrbxTWy45iN-14" value="+ static verificarVitoria(tabuleiro : Tabuleiro) : VencedorEnum" style="text;strokeColor=none;fillColor=none;align=left;verticalAlign=top;spacingLeft=4;spacingRight=4;overflow=hidden;rotatable=0;points=[[0,0.5],[1,0.5]];portConstraint=eastwest;whiteSpace=wrap;html=1;" vertex="1" parent="xeSXIi57mY3782JtzwZf-56">
          <mxGeometry y="332" width="350" height="26" as="geometry" />
        </mxCell>
        <mxCell id="73gj4kDyClrbxTWy45iN-18" value="+ static verificaTresIguais(peca1 : PecaEnum, peca2 : PecaEnum, peca3 : PecaEnum) : boolean" style="text;strokeColor=none;fillColor=none;align=left;verticalAlign=top;spacingLeft=4;spacingRight=4;overflow=hidden;rotatable=0;points=[[0,0.5],[1,0.5]];portConstraint=eastwest;whiteSpace=wrap;html=1;" vertex="1" parent="xeSXIi57mY3782JtzwZf-56">
          <mxGeometry y="358" width="350" height="34" as="geometry" />
        </mxCell>
        <mxCell id="73gj4kDyClrbxTWy45iN-19" value="- contabilizarPontos() : void" style="text;strokeColor=none;fillColor=none;align=left;verticalAlign=top;spacingLeft=4;spacingRight=4;overflow=hidden;rotatable=0;points=[[0,0.5],[1,0.5]];portConstraint=eastwest;whiteSpace=wrap;html=1;" vertex="1" parent="xeSXIi57mY3782JtzwZf-56">
          <mxGeometry y="392" width="350" height="26" as="geometry" />
        </mxCell>
        <mxCell id="73gj4kDyClrbxTWy45iN-22" value="+ getColunaJogada() : int" style="text;strokeColor=none;fillColor=none;align=left;verticalAlign=top;spacingLeft=4;spacingRight=4;overflow=hidden;rotatable=0;points=[[0,0.5],[1,0.5]];portConstraint=eastwest;whiteSpace=wrap;html=1;" vertex="1" parent="xeSXIi57mY3782JtzwZf-56">
          <mxGeometry y="418" width="350" height="26" as="geometry" />
        </mxCell>
        <mxCell id="73gj4kDyClrbxTWy45iN-23" value="+ getJogadaAnterior() : Jogada" style="text;strokeColor=none;fillColor=none;align=left;verticalAlign=top;spacingLeft=4;spacingRight=4;overflow=hidden;rotatable=0;points=[[0,0.5],[1,0.5]];portConstraint=eastwest;whiteSpace=wrap;html=1;" vertex="1" parent="xeSXIi57mY3782JtzwZf-56">
          <mxGeometry y="444" width="350" height="26" as="geometry" />
        </mxCell>
        <mxCell id="73gj4kDyClrbxTWy45iN-24" value="+ getJogadasProximas() : List&lt;Jogada&gt;" style="text;strokeColor=none;fillColor=none;align=left;verticalAlign=top;spacingLeft=4;spacingRight=4;overflow=hidden;rotatable=0;points=[[0,0.5],[1,0.5]];portConstraint=eastwest;whiteSpace=wrap;html=1;" vertex="1" parent="xeSXIi57mY3782JtzwZf-56">
          <mxGeometry y="470" width="350" height="26" as="geometry" />
        </mxCell>
        <mxCell id="73gj4kDyClrbxTWy45iN-26" value="+ getJogadorAtual() : PecaEnum" style="text;strokeColor=none;fillColor=none;align=left;verticalAlign=top;spacingLeft=4;spacingRight=4;overflow=hidden;rotatable=0;points=[[0,0.5],[1,0.5]];portConstraint=eastwest;whiteSpace=wrap;html=1;" vertex="1" parent="xeSXIi57mY3782JtzwZf-56">
          <mxGeometry y="496" width="350" height="26" as="geometry" />
        </mxCell>
        <mxCell id="73gj4kDyClrbxTWy45iN-25" value="+ getLinhaJogada() : int" style="text;strokeColor=none;fillColor=none;align=left;verticalAlign=top;spacingLeft=4;spacingRight=4;overflow=hidden;rotatable=0;points=[[0,0.5],[1,0.5]];portConstraint=eastwest;whiteSpace=wrap;html=1;" vertex="1" parent="xeSXIi57mY3782JtzwZf-56">
          <mxGeometry y="522" width="350" height="26" as="geometry" />
        </mxCell>
        <mxCell id="73gj4kDyClrbxTWy45iN-21" value="+ getPontosEmpate() : int" style="text;strokeColor=none;fillColor=none;align=left;verticalAlign=top;spacingLeft=4;spacingRight=4;overflow=hidden;rotatable=0;points=[[0,0.5],[1,0.5]];portConstraint=eastwest;whiteSpace=wrap;html=1;" vertex="1" parent="xeSXIi57mY3782JtzwZf-56">
          <mxGeometry y="548" width="350" height="26" as="geometry" />
        </mxCell>
        <mxCell id="73gj4kDyClrbxTWy45iN-17" value="+ getPontosO() : int" style="text;strokeColor=none;fillColor=none;align=left;verticalAlign=top;spacingLeft=4;spacingRight=4;overflow=hidden;rotatable=0;points=[[0,0.5],[1,0.5]];portConstraint=eastwest;whiteSpace=wrap;html=1;" vertex="1" parent="xeSXIi57mY3782JtzwZf-56">
          <mxGeometry y="574" width="350" height="26" as="geometry" />
        </mxCell>
        <mxCell id="73gj4kDyClrbxTWy45iN-20" value="+ getPontosX() : int" style="text;strokeColor=none;fillColor=none;align=left;verticalAlign=top;spacingLeft=4;spacingRight=4;overflow=hidden;rotatable=0;points=[[0,0.5],[1,0.5]];portConstraint=eastwest;whiteSpace=wrap;html=1;" vertex="1" parent="xeSXIi57mY3782JtzwZf-56">
          <mxGeometry y="600" width="350" height="26" as="geometry" />
        </mxCell>
        <mxCell id="73gj4kDyClrbxTWy45iN-28" value="+ getTabuleiro() : Tabuleiro" style="text;strokeColor=none;fillColor=none;align=left;verticalAlign=top;spacingLeft=4;spacingRight=4;overflow=hidden;rotatable=0;points=[[0,0.5],[1,0.5]];portConstraint=eastwest;whiteSpace=wrap;html=1;" vertex="1" parent="xeSXIi57mY3782JtzwZf-56">
          <mxGeometry y="626" width="350" height="26" as="geometry" />
        </mxCell>
        <mxCell id="73gj4kDyClrbxTWy45iN-30" value="+ getVencedor() : VencedorEnum" style="text;strokeColor=none;fillColor=none;align=left;verticalAlign=top;spacingLeft=4;spacingRight=4;overflow=hidden;rotatable=0;points=[[0,0.5],[1,0.5]];portConstraint=eastwest;whiteSpace=wrap;html=1;" vertex="1" parent="xeSXIi57mY3782JtzwZf-56">
          <mxGeometry y="652" width="350" height="26" as="geometry" />
        </mxCell>
        <mxCell id="73gj4kDyClrbxTWy45iN-31" value="+ preverProximasJogada() : void" style="text;strokeColor=none;fillColor=none;align=left;verticalAlign=top;spacingLeft=4;spacingRight=4;overflow=hidden;rotatable=0;points=[[0,0.5],[1,0.5]];portConstraint=eastwest;whiteSpace=wrap;html=1;" vertex="1" parent="xeSXIi57mY3782JtzwZf-56">
          <mxGeometry y="678" width="350" height="26" as="geometry" />
        </mxCell>
        <mxCell id="73gj4kDyClrbxTWy45iN-29" value="+ selecionarMelhorJogada() : Jogada" style="text;strokeColor=none;fillColor=none;align=left;verticalAlign=top;spacingLeft=4;spacingRight=4;overflow=hidden;rotatable=0;points=[[0,0.5],[1,0.5]];portConstraint=eastwest;whiteSpace=wrap;html=1;" vertex="1" parent="xeSXIi57mY3782JtzwZf-56">
          <mxGeometry y="704" width="350" height="26" as="geometry" />
        </mxCell>
        <mxCell id="73gj4kDyClrbxTWy45iN-27" value="+ selecionarProximaJogada(linha : int, coluna : int) : Jogada" style="text;strokeColor=none;fillColor=none;align=left;verticalAlign=top;spacingLeft=4;spacingRight=4;overflow=hidden;rotatable=0;points=[[0,0.5],[1,0.5]];portConstraint=eastwest;whiteSpace=wrap;html=1;" vertex="1" parent="xeSXIi57mY3782JtzwZf-56">
          <mxGeometry y="730" width="350" height="26" as="geometry" />
        </mxCell>
        <mxCell id="73gj4kDyClrbxTWy45iN-32" value="+ setTabuleiro(tabuleiro : Tabuleiro) : void" style="text;strokeColor=none;fillColor=none;align=left;verticalAlign=top;spacingLeft=4;spacingRight=4;overflow=hidden;rotatable=0;points=[[0,0.5],[1,0.5]];portConstraint=eastwest;whiteSpace=wrap;html=1;" vertex="1" parent="xeSXIi57mY3782JtzwZf-56">
          <mxGeometry y="756" width="350" height="26" as="geometry" />
        </mxCell>
        <mxCell id="73gj4kDyClrbxTWy45iN-34" value="+ toString() : String" style="text;strokeColor=none;fillColor=none;align=left;verticalAlign=top;spacingLeft=4;spacingRight=4;overflow=hidden;rotatable=0;points=[[0,0.5],[1,0.5]];portConstraint=eastwest;whiteSpace=wrap;html=1;" vertex="1" parent="xeSXIi57mY3782JtzwZf-56">
          <mxGeometry y="782" width="350" height="26" as="geometry" />
        </mxCell>
        <mxCell id="73gj4kDyClrbxTWy45iN-35" value="+ totalPontos() : int" style="text;strokeColor=none;fillColor=none;align=left;verticalAlign=top;spacingLeft=4;spacingRight=4;overflow=hidden;rotatable=0;points=[[0,0.5],[1,0.5]];portConstraint=eastwest;whiteSpace=wrap;html=1;" vertex="1" parent="xeSXIi57mY3782JtzwZf-56">
          <mxGeometry y="808" width="350" height="26" as="geometry" />
        </mxCell>
        <mxCell id="73gj4kDyClrbxTWy45iN-33" value="+ compareTo(j2 : Jogada) : int" style="text;strokeColor=none;fillColor=none;align=left;verticalAlign=top;spacingLeft=4;spacingRight=4;overflow=hidden;rotatable=0;points=[[0,0.5],[1,0.5]];portConstraint=eastwest;whiteSpace=wrap;html=1;" vertex="1" parent="xeSXIi57mY3782JtzwZf-56">
          <mxGeometry y="834" width="350" height="26" as="geometry" />
        </mxCell>
      </root>
    </mxGraphModel>
  </diagram>
</mxfile>
